<svg id="Capa_1" enable-background="new 0 0 512 512" height="512" viewBox="0 0 512 512" width="512" xmlns="http://www.w3.org/2000/svg"><path d="m256 511.257c-68.371 0-132.652-26.546-181.003-74.746-48.362-48.214-74.997-112.321-74.997-180.511s26.635-132.297 74.997-180.511c48.351-48.2 112.632-74.746 181.003-74.746 65.172 0 126.628 24.12 174.113 68.123 2.331 2.16 4.628 4.368 6.89 6.623 9.817 9.787 4.167 35.851 12.152 46.849 8.28 11.404 30.126 7.782 36.347 20.272 17.335 34.803 26.498 73.394 26.498 113.39 0 68.19-26.635 132.297-74.997 180.511-48.351 48.2-112.632 74.746-181.003 74.746z" fill="#00769d"/><path d="m437.003 75.489c-2.262-2.255-4.559-4.463-6.89-6.623-47.485-44.003-108.941-68.123-174.113-68.123v510.514c68.371 0 132.652-26.546 181.003-74.746 48.362-48.214 74.997-112.321 74.997-180.511 0-39.996-9.163-78.587-26.499-113.39-6.11-12.267-28.249-9.05-36.347-20.272-8.097-11.221-2.153-36.881-12.151-46.849z" fill="#069"/><path d="m168.963 496.112c-.284 0-.567-.007-.853-.022-6.542-.348-12.139-4.578-14.257-10.779l-118.947-348.006c-1.663-4.864-.871-10.266 2.119-14.448 2.99-4.183 7.846-6.679 12.986-6.679h90.813c8.802 0 15.964 7.162 15.964 15.964s-7.162 15.964-15.964 15.964h-6.941l73.884 210.811 48.05-103.256-36.84-107.556h-5.555c-8.802 0-15.964-7.162-15.964-15.964s7.162-15.964 15.964-15.964h97.02c8.802 0 15.964 7.162 15.964 15.964 0 7.765-5.518 14.304-13.025 15.691l71.836 204.964c8.351-25.784 19.079-62.229 24.757-94.855l-14.037-37c-5.595-14.744-12.5-29.624-21.112-45.49-8.705-16.042-16.885-41.354-6.422-70.842 8.821-24.856 25.567-38.295 49.774-39.945.361-.024.718-.036 1.077-.036 4.039 0 7.893 1.508 10.852 4.245 22.876 21.166 41.498 45.982 55.349 73.759 1.713 3.433 2.131 7.371 1.178 11.088-1.906 7.434-4.795 14.745-8.587 21.731-8.613 15.873-15.519 30.753-21.111 45.49l-15.011 39.566c-10.876 65.323-40.48 143.145-41.736 146.428-.16.418-.337.824-.528 1.223l-36.734 75.946c-2.647 5.475-8.287 9.013-14.367 9.013-.322 0-.643-.01-.966-.029-6.485-.392-12.036-4.616-14.141-10.762l-62.705-183.075-87.314 187.63c-2.61 5.609-8.29 9.231-14.47 9.231z" fill="#fff"/><path d="m485.454 142.633c-13.851-27.776-32.473-52.592-55.349-73.759-2.958-2.737-6.813-4.245-10.852-4.245-.358 0-.716.012-1.077.036-24.206 1.651-40.953 15.089-49.774 39.945-10.463 29.488-2.283 54.8 6.422 70.842 8.611 15.867 15.517 30.746 21.112 45.49l14.037 37c-5.678 32.626-16.405 69.071-24.757 94.855l-71.836-204.964c7.508-1.387 13.025-7.926 13.025-15.691 0-8.802-7.162-15.964-15.964-15.964h-54.708v139.242l.083.242-.083.178v75.673l15.012-32.26 62.705 183.075c2.105 6.146 7.656 10.37 14.141 10.762.323.02.644.029.966.029 6.08 0 11.72-3.538 14.367-9.013l36.734-75.946c.191-.398.368-.805.528-1.223 1.256-3.283 30.86-81.105 41.736-146.428l15.011-39.566c5.592-14.737 12.497-29.617 21.111-45.49 3.792-6.986 6.681-14.298 8.587-21.731.954-3.718.536-7.656-1.177-11.089z" fill="#d7f2f9"/></svg>