<svg id="logosandtypes_com" data-name="logosandtypes com" xmlns="http://www.w3.org/2000/svg" xmlns:xlink="http://www.w3.org/1999/xlink" viewBox="0 0 150 150"><defs><style>.cls-1{fill:none;}.cls-2{fill:url(#Gradient_Purple);}.cls-3{fill:url(#Gradient_Purple-2);}.cls-4{fill:url(#Gradient_Green);}</style><linearGradient id="Gradient_Purple" x1="51.18" y1="130.82" x2="51.18" y2="21.01" gradientUnits="userSpaceOnUse"><stop offset="0" stop-color="#570732"/><stop offset="0.02" stop-color="#5d0936"/><stop offset="0.16" stop-color="#771549"/><stop offset="0.3" stop-color="#8b1d58"/><stop offset="0.47" stop-color="#992362"/><stop offset="0.67" stop-color="#a12768"/><stop offset="1" stop-color="#a4286a"/></linearGradient><linearGradient id="Gradient_Purple-2" x1="107.49" y1="130.82" x2="107.49" y2="21.24" xlink:href="#Gradient_Purple"/><linearGradient id="Gradient_Green" x1="79.78" y1="0.75" x2="79.78" y2="149.25" gradientUnits="userSpaceOnUse"><stop offset="0" stop-color="#77b227"/><stop offset="0.47" stop-color="#75b027"/><stop offset="0.64" stop-color="#6eab27"/><stop offset="0.75" stop-color="#63a027"/><stop offset="0.85" stop-color="#529228"/><stop offset="0.93" stop-color="#3c8028"/><stop offset="1" stop-color="#246b29"/></linearGradient></defs><path class="cls-1" d="M0,0H150V150H0Z" transform="translate(0 0)"/><path class="cls-2" d="M57.63,36.26H31.48l25.58,65.68a21.07,21.07,0,0,1,0,15.31C54.8,123,51,129.14,40.14,130.6l-1.61.22H33.48A22.93,22.93,0,0,1,10.62,108V43.87A22.93,22.93,0,0,1,33.48,21H91.74L71.08,78.39Z" transform="translate(0 0)"/><path class="cls-3" d="M138.55,43.87v86.95H76.44a129.94,129.94,0,0,0,9.61-21.47l32.86-88.11A23,23,0,0,1,138.55,43.87Z" transform="translate(0 0)"/><path class="cls-4" d="M122.46.75,82.44,108c-3.39,9.48-6.82,17-10.48,22.79a49.5,49.5,0,0,1-6.79,8.72c-6.2,6.23-13.5,9.34-22.85,9.71V134.14a25.29,25.29,0,0,0,9-3.32c5.19-3.24,7.71-8,9.35-12.17a24.85,24.85,0,0,0,0-18.1L37.1,40.09H54.82l16,50.24L103.11.75Z" transform="translate(0 0)"/></svg>