<svg xmlns="http://www.w3.org/2000/svg" xmlns:xlink="http://www.w3.org/1999/xlink" width="2048" zoomAndPan="magnify" viewBox="0 0 1536 1096.499967" height="1462" preserveAspectRatio="xMidYMid meet" version="1.0"><defs><clipPath id="d02f534b6a"><path d="M 0.351562 768 L 1535.648438 768 L 1535.648438 1096 L 0.351562 1096 Z M 0.351562 768 " clip-rule="nonzero"/></clipPath><clipPath id="20da155704"><path d="M 0.351562 384 L 1535.648438 384 L 1535.648438 769 L 0.351562 769 Z M 0.351562 384 " clip-rule="nonzero"/></clipPath><clipPath id="a65e317279"><path d="M 0.351562 1 L 1535.648438 1 L 1535.648438 385 L 0.351562 385 Z M 0.351562 1 " clip-rule="nonzero"/></clipPath></defs><g clip-path="url(#d02f534b6a)"><path fill="#ffcd05" d="M 0.351562 939.367188 C 0.351562 942.160156 0.417969 944.949219 0.554688 947.738281 C 0.691406 950.527344 0.898438 953.308594 1.171875 956.085938 C 1.445312 958.867188 1.785156 961.636719 2.195312 964.398438 C 2.605469 967.160156 3.082031 969.910156 3.628906 972.648438 C 4.171875 975.386719 4.785156 978.109375 5.460938 980.816406 C 6.140625 983.523438 6.886719 986.214844 7.695312 988.886719 C 8.507812 991.558594 9.382812 994.207031 10.320312 996.835938 C 11.261719 999.464844 12.265625 1002.070312 13.335938 1004.648438 C 14.402344 1007.226562 15.535156 1009.777344 16.726562 1012.304688 C 17.921875 1014.828125 19.175781 1017.320312 20.492188 1019.78125 C 21.808594 1022.246094 23.183594 1024.671875 24.621094 1027.066406 C 26.054688 1029.460938 27.546875 1031.820312 29.097656 1034.140625 C 30.652344 1036.460938 32.257812 1038.746094 33.921875 1040.988281 C 35.582031 1043.230469 37.300781 1045.429688 39.070312 1047.585938 C 40.84375 1049.746094 42.667969 1051.859375 44.539062 1053.925781 C 46.414062 1055.996094 48.339844 1058.015625 50.3125 1059.992188 C 52.289062 1061.964844 54.308594 1063.890625 56.378906 1065.765625 C 58.445312 1067.640625 60.558594 1069.460938 62.71875 1071.234375 C 64.875 1073.003906 67.078125 1074.722656 69.320312 1076.386719 C 71.5625 1078.046875 73.84375 1079.65625 76.164062 1081.207031 C 78.484375 1082.757812 80.84375 1084.25 83.238281 1085.6875 C 85.632812 1087.121094 88.0625 1088.496094 90.523438 1089.8125 C 92.984375 1091.128906 95.480469 1092.382812 98.003906 1093.578125 C 100.527344 1094.769531 103.078125 1095.902344 105.65625 1096.96875 C 108.238281 1098.039062 110.839844 1099.042969 113.46875 1099.984375 C 116.097656 1100.925781 118.746094 1101.800781 121.417969 1102.609375 C 124.089844 1103.421875 126.78125 1104.164062 129.488281 1104.84375 C 132.199219 1105.523438 134.921875 1106.132812 137.660156 1106.679688 C 140.398438 1107.222656 143.148438 1107.699219 145.910156 1108.109375 C 148.671875 1108.519531 151.441406 1108.859375 154.21875 1109.132812 C 156.996094 1109.40625 159.78125 1109.613281 162.570312 1109.75 C 165.355469 1109.886719 168.148438 1109.957031 170.9375 1109.957031 L 1365.0625 1109.957031 C 1367.851562 1109.957031 1370.644531 1109.886719 1373.429688 1109.75 C 1376.21875 1109.613281 1379.003906 1109.40625 1381.78125 1109.132812 C 1384.558594 1108.859375 1387.328125 1108.519531 1390.09375 1108.109375 C 1392.851562 1107.699219 1395.601562 1107.222656 1398.339844 1106.679688 C 1401.078125 1106.132812 1403.800781 1105.523438 1406.511719 1104.84375 C 1409.21875 1104.164062 1411.910156 1103.421875 1414.582031 1102.609375 C 1417.25 1101.800781 1419.902344 1100.925781 1422.53125 1099.984375 C 1425.160156 1099.042969 1427.761719 1098.039062 1430.34375 1096.96875 C 1432.921875 1095.902344 1435.472656 1094.769531 1437.996094 1093.578125 C 1440.519531 1092.382812 1443.015625 1091.128906 1445.476562 1089.8125 C 1447.9375 1088.496094 1450.367188 1087.121094 1452.761719 1085.6875 C 1455.15625 1084.25 1457.511719 1082.757812 1459.835938 1081.207031 C 1462.15625 1079.65625 1464.4375 1078.046875 1466.679688 1076.386719 C 1468.921875 1074.722656 1471.125 1073.003906 1473.28125 1071.234375 C 1475.441406 1069.460938 1477.554688 1067.640625 1479.621094 1065.765625 C 1481.691406 1063.890625 1483.710938 1061.964844 1485.683594 1059.992188 C 1487.660156 1058.015625 1489.585938 1055.996094 1491.460938 1053.925781 C 1493.335938 1051.859375 1495.15625 1049.746094 1496.929688 1047.585938 C 1498.699219 1045.429688 1500.417969 1043.230469 1502.078125 1040.988281 C 1503.742188 1038.746094 1505.347656 1036.460938 1506.898438 1034.140625 C 1508.453125 1031.820312 1509.945312 1029.460938 1511.378906 1027.066406 C 1512.816406 1024.671875 1514.191406 1022.246094 1515.507812 1019.78125 C 1516.824219 1017.320312 1518.078125 1014.828125 1519.273438 1012.304688 C 1520.464844 1009.777344 1521.597656 1007.226562 1522.664062 1004.648438 C 1523.734375 1002.070312 1524.738281 999.464844 1525.679688 996.835938 C 1526.617188 994.207031 1527.492188 991.558594 1528.304688 988.886719 C 1529.113281 986.214844 1529.859375 983.523438 1530.539062 980.816406 C 1531.214844 978.109375 1531.828125 975.386719 1532.371094 972.648438 C 1532.917969 969.910156 1533.394531 967.160156 1533.804688 964.398438 C 1534.214844 961.636719 1534.554688 958.867188 1534.828125 956.085938 C 1535.101562 953.308594 1535.308594 950.527344 1535.445312 947.738281 C 1535.582031 944.949219 1535.648438 942.160156 1535.648438 939.367188 L 1535.648438 768.777344 L 0.351562 768.777344 Z M 0.351562 939.367188 " fill-opacity="1" fill-rule="nonzero"/></g><g clip-path="url(#20da155704)"><path fill="#ed1f24" d="M 0.351562 384.953125 L 1535.648438 384.953125 L 1535.648438 768.777344 L 0.351562 768.777344 Z M 0.351562 384.953125 " fill-opacity="1" fill-rule="nonzero"/></g><g clip-path="url(#a65e317279)"><path fill="#141414" d="M 1365.0625 1.128906 L 170.9375 1.128906 C 168.148438 1.128906 165.355469 1.195312 162.570312 1.332031 C 159.78125 1.46875 156.996094 1.675781 154.21875 1.949219 C 151.441406 2.222656 148.671875 2.566406 145.910156 2.972656 C 143.148438 3.382812 140.398438 3.863281 137.660156 4.40625 C 134.921875 4.949219 132.199219 5.5625 129.488281 6.242188 C 126.78125 6.917969 124.089844 7.664062 121.417969 8.472656 C 118.746094 9.285156 116.097656 10.160156 113.46875 11.101562 C 110.839844 12.039062 108.238281 13.046875 105.65625 14.113281 C 103.078125 15.183594 100.527344 16.3125 98.003906 17.507812 C 95.480469 18.699219 92.984375 19.953125 90.523438 21.269531 C 88.0625 22.585938 85.632812 23.960938 83.238281 25.398438 C 80.84375 26.832031 78.484375 28.328125 76.164062 29.878906 C 73.84375 31.429688 71.5625 33.035156 69.320312 34.699219 C 67.078125 36.363281 64.875 38.078125 62.71875 39.851562 C 60.558594 41.621094 58.445312 43.445312 56.378906 45.320312 C 54.308594 47.195312 52.289062 49.117188 50.3125 51.09375 C 48.339844 53.066406 46.414062 55.089844 44.539062 57.15625 C 42.667969 59.226562 40.84375 61.339844 39.070312 63.496094 C 37.300781 65.65625 35.582031 67.855469 33.921875 70.097656 C 32.257812 72.339844 30.652344 74.621094 29.097656 76.941406 C 27.546875 79.265625 26.054688 81.621094 24.621094 84.015625 C 23.183594 86.410156 21.808594 88.839844 20.492188 91.300781 C 19.175781 93.765625 17.921875 96.257812 16.726562 98.78125 C 15.535156 101.304688 14.402344 103.855469 13.335938 106.433594 C 12.265625 109.015625 11.261719 111.617188 10.320312 114.246094 C 9.382812 116.875 8.507812 119.527344 7.695312 122.199219 C 6.886719 124.871094 6.140625 127.558594 5.460938 130.265625 C 4.785156 132.976562 4.171875 135.699219 3.628906 138.4375 C 3.082031 141.175781 2.605469 143.925781 2.195312 146.6875 C 1.785156 149.449219 1.445312 152.21875 1.171875 154.996094 C 0.898438 157.773438 0.691406 160.558594 0.554688 163.347656 C 0.417969 166.136719 0.351562 168.925781 0.351562 171.71875 L 0.351562 384.953125 L 1535.648438 384.953125 L 1535.648438 171.71875 C 1535.648438 168.925781 1535.582031 166.136719 1535.445312 163.347656 C 1535.308594 160.558594 1535.101562 157.773438 1534.828125 154.996094 C 1534.554688 152.21875 1534.214844 149.449219 1533.804688 146.6875 C 1533.394531 143.925781 1532.917969 141.175781 1532.371094 138.4375 C 1531.828125 135.699219 1531.214844 132.976562 1530.539062 130.265625 C 1529.859375 127.558594 1529.113281 124.871094 1528.304688 122.199219 C 1527.492188 119.527344 1526.617188 116.875 1525.679688 114.246094 C 1524.738281 111.617188 1523.734375 109.015625 1522.664062 106.433594 C 1521.597656 103.855469 1520.464844 101.304688 1519.273438 98.78125 C 1518.078125 96.257812 1516.824219 93.765625 1515.507812 91.300781 C 1514.191406 88.839844 1512.816406 86.410156 1511.378906 84.015625 C 1509.945312 81.621094 1508.453125 79.265625 1506.898438 76.941406 C 1505.347656 74.621094 1503.742188 72.339844 1502.078125 70.097656 C 1500.417969 67.855469 1498.699219 65.65625 1496.929688 63.496094 C 1495.15625 61.339844 1493.335938 59.226562 1491.460938 57.15625 C 1489.585938 55.089844 1487.660156 53.066406 1485.683594 51.09375 C 1483.710938 49.117188 1481.691406 47.195312 1479.621094 45.320312 C 1477.554688 43.445312 1475.441406 41.621094 1473.28125 39.851562 C 1471.125 38.078125 1468.921875 36.363281 1466.679688 34.699219 C 1464.4375 33.035156 1462.15625 31.429688 1459.835938 29.878906 C 1457.511719 28.328125 1455.15625 26.832031 1452.761719 25.398438 C 1450.367188 23.960938 1447.9375 22.585938 1445.476562 21.269531 C 1443.015625 19.953125 1440.519531 18.699219 1437.996094 17.507812 C 1435.472656 16.3125 1432.921875 15.183594 1430.34375 14.113281 C 1427.761719 13.046875 1425.160156 12.039062 1422.53125 11.101562 C 1419.902344 10.160156 1417.25 9.285156 1414.582031 8.472656 C 1411.910156 7.664062 1409.21875 6.917969 1406.511719 6.242188 C 1403.800781 5.5625 1401.078125 4.949219 1398.339844 4.40625 C 1395.601562 3.863281 1392.851562 3.382812 1390.09375 2.972656 C 1387.328125 2.566406 1384.558594 2.222656 1381.78125 1.949219 C 1379.003906 1.675781 1376.21875 1.46875 1373.429688 1.332031 C 1370.644531 1.195312 1367.851562 1.128906 1365.0625 1.128906 Z M 1365.0625 1.128906 " fill-opacity="1" fill-rule="nonzero"/></g></svg>