<svg xmlns="http://www.w3.org/2000/svg" xmlns:xlink="http://www.w3.org/1999/xlink" width="2048" zoomAndPan="magnify" viewBox="0 0 1536 1096.499967" height="1462" preserveAspectRatio="xMidYMid meet" version="1.0"><defs><clipPath id="a2c061143d"><path d="M 0.351562 0 L 1528.152344 0 L 1528.152344 1096 L 0.351562 1096 Z M 0.351562 0 " clip-rule="nonzero"/></clipPath><clipPath id="a6fa1be1b5"><path d="M 0.351562 0 L 1528.152344 0 L 1528.152344 1096 L 0.351562 1096 Z M 0.351562 0 " clip-rule="nonzero"/></clipPath></defs><g clip-path="url(#a2c061143d)"><path fill="#00247d" d="M 0.351562 166.964844 L 0.351562 334.21875 L 239.195312 334.21875 Z M 198.285156 1098.121094 L 552.058594 1098.121094 L 552.058594 850.402344 Z M 976.445312 850.445312 L 976.445312 1098.121094 L 1330.175781 1098.121094 Z M 0.351562 758.609375 L 0.351562 925.859375 L 239.28125 758.609375 Z M 1330.261719 -5.292969 L 976.445312 -5.292969 L 976.445312 242.421875 Z M 1528.152344 925.902344 L 1528.152344 758.609375 L 1289.179688 758.609375 Z M 1528.152344 334.21875 L 1528.152344 166.964844 L 1289.265625 334.21875 Z M 552.058594 -5.292969 L 198.285156 -5.292969 L 552.058594 242.421875 Z M 552.058594 -5.292969 " fill-opacity="1" fill-rule="nonzero"/></g><path fill="#cf1b2b" d="M 1067.265625 758.609375 L 1479.433594 1047.234375 C 1484.445312 1042.074219 1489.105469 1036.609375 1493.421875 1030.851562 C 1497.734375 1025.09375 1501.664062 1019.082031 1505.207031 1012.820312 C 1508.75 1006.558594 1511.882812 1000.097656 1514.601562 993.433594 C 1517.316406 986.773438 1519.601562 979.964844 1521.449219 973.007812 L 1215.25 758.609375 Z M 552.058594 758.609375 L 461.195312 758.609375 L 49.070312 1047.191406 C 71.179688 1069.683594 99.53125 1085.769531 131.316406 1093.238281 L 552.058594 798.628906 Z M 976.445312 334.21875 L 1067.308594 334.21875 L 1479.433594 45.632812 C 1473.839844 39.957031 1467.875 34.699219 1461.535156 29.867188 C 1455.199219 25.035156 1448.554688 20.667969 1441.601562 16.773438 C 1434.648438 12.878906 1427.453125 9.492188 1420.023438 6.613281 C 1412.589844 3.734375 1404.992188 1.390625 1397.230469 -0.414062 L 976.445312 294.199219 Z M 461.195312 334.21875 L 49.070312 45.632812 C 44.0625 50.800781 39.398438 56.261719 35.085938 62.023438 C 30.773438 67.785156 26.84375 73.796875 23.296875 80.058594 C 19.746094 86.316406 16.613281 92.777344 13.886719 99.4375 C 11.160156 106.101562 8.871094 112.90625 7.011719 119.859375 L 313.210938 334.21875 Z M 461.195312 334.21875 " fill-opacity="1" fill-rule="nonzero"/><g clip-path="url(#a6fa1be1b5)"><path fill="#eeeeee" d="M 1528.152344 673.730469 L 891.570312 673.730469 L 891.570312 1098.121094 L 976.445312 1098.121094 L 976.445312 850.445312 L 1330.175781 1098.121094 L 1358.398438 1098.121094 C 1364.019531 1098.121094 1369.628906 1097.84375 1375.222656 1097.285156 C 1380.816406 1096.726562 1386.371094 1095.890625 1391.882812 1094.78125 C 1397.394531 1093.667969 1402.835938 1092.289062 1408.210938 1090.632812 C 1413.585938 1088.980469 1418.863281 1087.066406 1424.046875 1084.886719 C 1429.230469 1082.707031 1434.292969 1080.277344 1439.234375 1077.59375 C 1444.175781 1074.910156 1448.96875 1071.988281 1453.621094 1068.828125 C 1458.269531 1065.664062 1462.75 1062.28125 1467.0625 1058.671875 C 1471.378906 1055.066406 1475.5 1051.253906 1479.433594 1047.234375 L 1067.265625 758.609375 L 1215.25 758.609375 L 1521.449219 973.007812 C 1525.394531 958.707031 1528.152344 943.894531 1528.152344 928.363281 L 1528.152344 925.902344 L 1289.179688 758.609375 L 1528.152344 758.609375 Z M 0.351562 673.730469 L 0.351562 758.609375 L 239.28125 758.609375 L 0.351562 925.859375 L 0.351562 928.363281 C 0.351562 974.664062 18.980469 1016.550781 49.070312 1047.191406 L 461.195312 758.609375 L 552.058594 758.609375 L 552.058594 798.628906 L 131.316406 1093.195312 C 143.792969 1096.167969 156.695312 1098.121094 170.105469 1098.121094 L 198.285156 1098.121094 L 552.058594 850.402344 L 552.058594 1098.121094 L 636.933594 1098.121094 L 636.933594 673.730469 Z M 1528.152344 164.460938 C 1528.15625 158.96875 1527.890625 153.488281 1527.363281 148.019531 C 1526.832031 142.554688 1526.035156 137.125 1524.972656 131.734375 C 1523.914062 126.34375 1522.59375 121.019531 1521.015625 115.757812 C 1519.433594 110.496094 1517.601562 105.324219 1515.519531 100.242188 C 1513.433594 95.15625 1511.109375 90.1875 1508.539062 85.332031 C 1505.972656 80.476562 1503.171875 75.757812 1500.144531 71.171875 C 1497.117188 66.589844 1493.871094 62.164062 1490.410156 57.898438 C 1486.953125 53.632812 1483.292969 49.542969 1479.433594 45.632812 L 1067.308594 334.21875 L 976.445312 334.21875 L 976.445312 294.199219 L 1397.230469 -0.414062 C 1384.472656 -3.542969 1371.53125 -5.167969 1358.398438 -5.292969 L 1330.261719 -5.292969 L 976.445312 242.421875 L 976.445312 -5.292969 L 891.570312 -5.292969 L 891.570312 419.097656 L 1528.152344 419.097656 L 1528.152344 334.21875 L 1289.265625 334.21875 L 1528.152344 166.964844 Z M 552.058594 -5.292969 L 552.058594 242.421875 L 198.285156 -5.292969 L 170.105469 -5.292969 C 164.480469 -5.296875 158.871094 -5.019531 153.277344 -4.460938 C 147.679688 -3.90625 142.125 -3.070312 136.613281 -1.957031 C 131.101562 -0.847656 125.65625 0.535156 120.28125 2.191406 C 114.90625 3.84375 109.628906 5.761719 104.445312 7.941406 C 99.261719 10.125 94.199219 12.558594 89.257812 15.242188 C 84.316406 17.929688 79.519531 20.855469 74.871094 24.019531 C 70.222656 27.183594 65.742188 30.570312 61.433594 34.183594 C 57.121094 37.792969 53 41.609375 49.070312 45.632812 L 461.195312 334.21875 L 313.210938 334.21875 L 7.011719 119.859375 C 2.78125 134.425781 0.5625 149.292969 0.351562 164.460938 L 0.351562 166.964844 L 239.195312 334.21875 L 0.351562 334.21875 L 0.351562 419.097656 L 636.933594 419.097656 L 636.933594 -5.292969 Z M 552.058594 -5.292969 " fill-opacity="1" fill-rule="nonzero"/><path fill="#cf1b2b" d="M 891.570312 419.097656 L 891.570312 -5.292969 L 636.933594 -5.292969 L 636.933594 419.097656 L 0.351562 419.097656 L 0.351562 673.730469 L 636.933594 673.730469 L 636.933594 1098.121094 L 891.570312 1098.121094 L 891.570312 673.730469 L 1528.152344 673.730469 L 1528.152344 419.097656 Z M 891.570312 419.097656 " fill-opacity="1" fill-rule="nonzero"/></g></svg>